<svg id="Layer_1" data-name="Layer 1" xmlns="http://www.w3.org/2000/svg" viewBox="0 0 1920 1080"><defs><style>.cls-1{fill:#f6f6f6;}.cls-2{fill:#4f89e9;opacity:0.65;}</style></defs><title>PMFPSetupBG</title><rect class="cls-1" width="1920" height="1080"/><path class="cls-2" d="M0,257v823H1920V860.25c-113.59-54.12-301.87-130.72-542-163.38C947.3,638.3,736.55,773.69,432,640.5,321.74,592.28,161.41,492.32,0,257Z"/><path class="cls-2" d="M0,159v921H1920V834.08c-113.59-60.56-301.87-146.28-542-182.83-430.7-65.55-641.45,86-946-63.09C321.74,534.2,161.41,422.34,0,159Z"/><path class="cls-2" d="M0,364.68V1080H1920V889c-113.59-47-301.87-113.62-542-142-430.7-50.91-641.45,66.77-946-49C321.74,656.09,161.41,569.21,0,364.68Z"/></svg>